<svg xmlns="http://www.w3.org/2000/svg" x="0px" y="0px" width="100" height="100" viewBox="0,0,256,256">
<g fill="#ffffff" fill-rule="nonzero" stroke="none" stroke-width="1" stroke-linecap="butt" stroke-linejoin="miter" stroke-miterlimit="10" stroke-dasharray="" stroke-dashoffset="0" font-family="none" font-weight="none" font-size="none" text-anchor="none" style="mix-blend-mode: normal"><g transform="scale(5.12,5.12)"><path d="M14,4c-5.514,0 -10,4.486 -10,10v22c0,5.514 4.486,10 10,10h22c5.514,0 10,-4.486 10,-10v-22c0,-5.514 -4.486,-10 -10,-10zM6,18h38v8h-38zM8,20v2h2v-2zM12,20v2h2v-2zM16,20v2h2v-2zM20,20v2h2v-2zM24,20v2h2v-2zM28,20v2h2v-2zM32,20v2h2v-2zM36,20v2h2v-2zM40,20v2h2v-2zM6,28h38v7h-38zM6,37h38c-0.495,3.94 -3.928,7 -8,7h-22c-4.072,0 -7.505,-3.06 -8,-7z"></path></g></g>
</svg>